<svg width="150" height="41" viewBox="0 0 150 41" fill="none" xmlns="http://www.w3.org/2000/svg">
<path d="M27.4389 1.72803C25.0367 1.72803 22.6579 2.21012 20.4386 3.14663C18.2192 4.08324 16.2027 5.45594 14.504 7.18646C12.8054 8.91708 11.458 10.9715 10.5387 13.2325C9.61945 15.4936 9.14624 17.9171 9.14624 20.3644C9.14624 22.8117 9.61945 25.2352 10.5387 27.4963C11.458 29.7573 12.8054 31.8117 14.504 33.5423C16.2027 35.2728 18.8171 36.246 21.0365 37.1826C23.2559 38.1191 25.0367 39.0008 27.4389 39.0008V30.5496C26.2378 30.5496 24.8901 29.9237 23.7804 29.4553C22.6707 28.987 21.8208 27.8186 20.9715 26.9534C20.1222 26.0881 19.4485 25.0609 18.9889 23.9303C18.5291 22.7998 18.2926 22.0427 18.2926 20.8189C18.2926 19.5952 18.5291 17.929 18.9889 16.7985C19.4485 15.6679 20.1222 14.6407 20.9715 13.7754C21.8208 12.9102 22.8291 12.2238 23.9388 11.7556C25.0484 11.2872 26.2378 11.0462 27.4389 11.0462V1.72803Z" fill="white"/>
<path d="M27.8963 26.2735C31.1797 26.2735 33.8414 23.628 33.8414 20.3644C33.8414 17.1009 31.1797 14.4553 27.8963 14.4553C24.6128 14.4553 21.9512 17.1009 21.9512 20.3644C21.9512 23.628 24.6128 26.2735 27.8963 26.2735Z" fill="white"/>
<path d="M9.14624 20.8188C9.14624 23.2065 9.63128 25.5708 10.5735 27.7768C11.5158 29.9827 12.8969 31.9869 14.638 33.6754C16.3791 35.3637 18.446 36.7029 20.7209 37.6167C22.9957 38.5303 25.434 39.0007 27.8962 39.0007C30.3585 39.0007 32.7967 38.5303 35.0716 37.6167C37.3465 36.7029 39.4133 35.3637 41.1545 33.6754C42.8956 31.9869 44.2767 29.9827 45.219 27.7768C46.1612 25.5708 46.6462 23.2065 46.6462 20.8188H37.2712C37.2712 22.0127 37.0288 23.1948 36.5576 24.2978C36.0865 25.4008 35.3959 26.403 34.5254 27.2471C33.6548 28.0913 32.6213 28.7609 31.4839 29.2177C30.3465 29.6746 29.1274 29.9098 27.8962 29.9098C26.6651 29.9098 25.446 29.6746 24.3086 29.2177C23.1711 28.7609 22.1376 28.0913 21.2671 27.2471C20.3966 26.403 19.706 25.4008 19.2349 24.2978C18.7637 23.1948 18.5212 22.0127 18.5212 20.8188H9.14624Z" fill="white"/>
<path d="M33.8414 20.819C33.8414 19.1312 33.215 17.5127 32.1002 16.3192C30.9852 15.1258 29.4731 14.4553 27.8963 14.4553C26.3196 14.4553 24.8075 15.1258 23.6925 16.3192C22.5775 17.5127 21.9512 19.1312 21.9512 20.819H27.8963H33.8414Z" fill="white"/>
<path d="M56.7078 13.5461H53.9639V26.2734H56.7078V13.5461Z" fill="white"/>
<path d="M57.6223 21.7281C57.6223 24.5386 59.7893 26.2735 62.6528 26.2735C65.5163 26.2735 67.6833 24.5386 67.6833 21.7281C67.6833 18.9175 65.5163 17.1826 62.6528 17.1826C59.7893 17.1826 57.6223 18.9175 57.6223 21.7281ZM60.0602 21.7281C60.0602 20.0626 61.1437 19.091 62.6528 19.091C64.1619 19.091 65.2454 20.0626 65.2454 21.7281C65.2454 23.3936 64.1619 24.3651 62.6528 24.3651C61.1437 24.3651 60.0602 23.3936 60.0602 21.7281Z" fill="white"/>
<path d="M75.5713 17.4285V18.6062H75.3961C74.8704 17.8504 74.0294 17.1824 72.5225 17.1824C70.455 17.1824 68.5977 18.9403 68.5977 21.6475C68.5977 24.3546 70.455 26.1126 72.5225 26.1126C74.0294 26.1126 74.8704 25.4269 75.361 24.7414H75.5363V25.5852C75.5363 27.2728 74.555 28.0463 73.1183 28.0463C71.6815 28.0463 70.9456 27.2728 70.6476 26.2707L68.6677 27.1321C69.1233 28.4505 70.455 29.9096 73.1533 29.9096C75.9217 29.9096 77.744 28.4505 77.744 25.6379V17.4285H75.5713ZM73.1884 24.214C71.8217 24.214 70.8054 23.2296 70.8054 21.6475C70.8054 20.0653 71.8217 19.0809 73.1884 19.0809C74.555 19.0809 75.5713 20.0653 75.5713 21.6475C75.5713 23.2296 74.555 24.214 73.1884 24.214Z" fill="white"/>
<path d="M79.5732 21.7278C79.5732 24.5384 81.7402 26.2733 84.6038 26.2733C87.4673 26.2733 89.6342 24.5384 89.6342 21.7278C89.6342 18.9173 87.4673 17.1824 84.6038 17.1824C81.7402 17.1824 79.5732 18.9173 79.5732 21.7278ZM82.0111 21.7278C82.0111 20.0623 83.0946 19.0908 84.6038 19.0908C86.1129 19.0908 87.1965 20.0623 87.1965 21.7278C87.1965 23.3933 86.1129 24.3649 84.6038 24.3649C83.0946 24.3649 82.0111 23.3933 82.0111 21.7278Z" fill="white"/>
<path d="M91.4634 14.2523C91.4634 15.2103 92.0647 15.8676 92.8358 15.8676C93.606 15.8676 94.2073 15.2103 94.2073 14.2523C94.2073 13.2944 93.606 12.637 92.8358 12.637C92.0647 12.637 91.4634 13.2944 91.4634 14.2523ZM93.8061 16.957H91.8646V26.2733H93.8061V16.957Z" fill="white"/>
<path d="M96.0366 29.9096H98.2447V25.1773H98.4194C98.91 25.8943 99.751 26.5755 101.258 26.5755C103.325 26.5755 105.183 24.7829 105.183 21.8789C105.183 18.9749 103.325 17.1824 101.258 17.1824C99.751 17.1824 98.91 17.8636 98.3849 18.6344H98.2092V17.4333H96.0366V29.9096ZM100.592 24.6395C99.2259 24.6395 98.2092 23.6356 98.2092 21.8789C98.2092 20.1222 99.2259 19.1184 100.592 19.1184C101.959 19.1184 102.975 20.1222 102.975 21.8789C102.975 23.6356 101.959 24.6395 100.592 24.6395Z" fill="white"/>
<path d="M107.348 19.8368C107.348 21.537 108.874 22.1616 110.811 22.5086L111.296 22.5953C112.45 22.8035 112.971 23.0638 112.971 23.6189C112.971 24.1741 112.45 24.6078 111.37 24.6078C110.29 24.6078 109.415 24.1914 109.172 22.9423L107.012 23.4627C107.33 25.267 108.949 26.2733 111.37 26.2733C113.716 26.2733 115.244 25.2497 115.244 23.4454C115.244 21.641 113.68 21.1554 111.594 20.7737L111.109 20.6869C110.141 20.5134 109.619 20.2705 109.619 19.698C109.619 19.1776 110.104 18.8479 110.998 18.8479C111.892 18.8479 112.524 19.1949 112.748 20.1317L114.871 19.5245C114.425 18.1366 113.065 17.1824 110.998 17.1824C108.8 17.1824 107.348 18.1366 107.348 19.8368Z" fill="white"/>
<path d="M125.305 26.1292V17.1826H122.904V21.8002C122.904 23.4597 122.047 24.4337 120.579 24.4337C119.283 24.4337 118.56 23.7664 118.56 22.4135V17.1826H116.158V22.5217C116.158 24.7404 117.626 26.2735 119.837 26.2735C121.57 26.2735 122.371 25.552 122.752 24.7944H122.942V26.1292H125.305Z" fill="white"/>
<path d="M127.134 17.3269V26.2735H129.542V20.9344C129.542 19.7079 130.153 19.0224 131.261 19.0224C132.217 19.0224 132.79 19.5275 132.79 20.5015V26.2735H135.198V20.9344C135.198 19.7079 135.809 19.0224 136.917 19.0224C137.873 19.0224 138.445 19.5275 138.445 20.5015V26.2735H140.853V20.3933C140.853 18.2288 139.439 17.1826 137.681 17.1826C136.134 17.1826 135.427 17.832 134.968 18.5895H134.777C134.337 17.7418 133.554 17.1826 132.178 17.1826C130.802 17.1826 130.057 17.7598 129.695 18.4452H129.503V17.3269H127.134Z" fill="white"/>
</svg>
