<svg width="150" height="41" viewBox="0 0 150 41" fill="none" xmlns="http://www.w3.org/2000/svg">
<path d="M27.8004 17.8359C30.6881 17.8359 31.3378 19.075 31.3378 20.6205C31.3378 22.2587 30.5519 23.4323 27.8124 23.4323C25.0903 23.4323 24.3035 22.3268 24.3035 20.6205C24.3035 18.9414 25.1611 17.8359 27.8004 17.8359Z" fill="white"/>
<path d="M57.9791 17.8362C60.8668 17.8362 61.5165 19.0753 61.5165 20.6207C61.5165 22.2589 60.7297 23.4325 57.9911 23.4325C55.2699 23.4325 54.4822 22.3271 54.4822 20.6207C54.4822 18.9416 55.3398 17.8362 57.9791 17.8362Z" fill="white"/>
<path fill-rule="evenodd" clip-rule="evenodd" d="M2.23315 36.728V4.49805H148.164V36.728H2.23315ZM71.7835 34.9099H146.324V6.31623H71.7835V34.9099ZM27.8144 26.1762C32.941 26.1762 35.0963 23.9917 35.0963 20.5799C35.0963 17.1126 32.6687 15.0517 27.8144 15.0517C23.0346 15.0517 20.5187 17.2899 20.5187 20.5799C20.5187 24.2926 23.1579 26.1762 27.8144 26.1762ZM9.99012 15.2971V26.0126H20.3374V23.159H13.7337V15.2971H9.99012ZM46.6766 26.0126L46.58 24.9744C45.3276 25.8573 43.8033 26.2822 42.2687 26.1762C39.9616 26.1762 38.0401 25.4935 36.9625 24.1153C36.2517 23.1091 35.8928 21.9013 35.9401 20.6753C35.8997 19.475 36.271 18.2965 36.9938 17.3308C38.0843 15.9935 40.061 15.1062 43.0039 15.1062C46.3895 15.1062 48.3791 16.1299 49.2349 17.8499C49.4186 18.255 49.5265 18.6895 49.5533 19.1326H45.9717C45.8814 18.8633 45.7135 18.626 45.4886 18.4499C44.7751 17.9826 43.9232 17.7665 43.0702 17.8362C42.5698 17.7763 42.0622 17.822 41.5811 17.9702C41.1 18.1185 40.6562 18.366 40.2791 18.6962C39.8508 19.2753 39.6497 19.9882 39.7131 20.7026C39.6634 21.3841 39.8483 22.0623 40.2377 22.6271C40.6182 22.9774 41.0706 23.2427 41.564 23.4052C42.0575 23.5677 42.5805 23.6236 43.0978 23.569C44.1251 23.6515 45.145 23.3385 45.9441 22.6953C46.1157 22.4833 46.2341 22.234 46.2892 21.968H42.4352V19.6653H49.6472V26.0126H46.6766ZM57.9929 26.1762C63.1187 26.1762 65.2748 23.9917 65.2748 20.5799C65.2748 17.1126 62.8434 15.0517 57.9929 15.0517C53.2131 15.0517 50.6972 17.2899 50.6972 20.5799C50.6972 24.2926 53.3364 26.1762 57.9929 26.1762Z" fill="white"/>
<path d="M78.0896 25.9716V15.2561H80.7583V25.9716H78.0896Z" fill="white"/>
<path d="M94.4624 21.4943C93.786 22.368 92.6219 22.7671 90.9811 22.7771C90.6351 22.7771 86.0477 22.7634 86.0477 22.7634V25.9716H83.436V15.2561H90.982C91.5868 15.193 92.1986 15.2563 92.7765 15.4421C93.3554 15.6279 93.8873 15.9319 94.3391 16.3343C94.9354 17.1018 95.2253 18.0587 95.1544 19.0234C95.2152 19.9009 94.9713 20.7726 94.4624 21.4943ZM92.321 18.0007C92.0449 17.5916 91.4495 17.3643 90.4419 17.3643H86.0339V20.6261H90.4133C91.4909 20.6261 92.0587 20.408 92.321 19.9843C92.4765 19.6859 92.5437 19.3498 92.5143 19.0152C92.5373 18.6663 92.471 18.3173 92.321 18.0007Z" fill="white"/>
<path d="M102.85 26.1353C97.9306 26.1353 96.425 24.3171 96.425 22.518H99.2162C99.2162 23.4053 100.446 24.0743 102.974 24.0743C105.489 24.0743 106.152 23.6371 106.152 22.9271C106.152 22.1353 105.655 21.8898 103.32 21.6307C102.859 21.5898 101.607 21.4398 101.137 21.3716C97.8238 21.0025 96.5484 20.0334 96.5484 18.2998C96.5484 16.4707 98.4146 15.0925 102.463 15.0925C106.857 15.0925 108.543 16.7989 108.543 18.5734H105.782C105.782 17.6725 104.746 17.1534 102.3 17.1534C99.7849 17.1534 99.2465 17.4943 99.2465 18.1634C99.2465 18.8598 99.7987 19.078 102.467 19.3916C103.076 19.4743 104.429 19.6243 104.802 19.6643C107.622 19.9507 108.893 20.9607 108.893 22.7489C108.888 24.8789 106.954 26.1353 102.85 26.1353Z" fill="white"/>
<path d="M116.752 26.1216C113.146 26.1216 110.797 24.7152 110.797 21.7579V15.2561H113.435V21.7943C113.435 23.1461 114.555 24.0461 116.862 24.0461C118.948 24.0461 120.192 23.2006 120.192 21.7943V15.2561H122.804V22.0006C122.804 24.6888 120.62 26.1216 116.752 26.1216Z" fill="white"/>
<path d="M137.104 25.9716V18.8188L133.719 25.9716H131.149L127.86 18.8188V25.9716H125.376V15.2561H128.742L132.473 23.4188L136.286 15.2561H139.599V25.9716H137.104Z" fill="white"/>
</svg>
