<svg width="150" height="41" viewBox="0 0 150 41" fill="none" xmlns="http://www.w3.org/2000/svg">
<path d="M0.861816 29.7659L0.861819 11.458L10.0715 16.5435V24.7312L17.4394 28.8505L24.8071 24.7312V16.5435L34.0169 11.458V29.7659L17.4394 38.9197L0.861816 29.7659Z" fill="white"/>
<path fill-rule="evenodd" clip-rule="evenodd" d="M5.46669 14.0009L0.861816 11.4581L17.4394 2.3042L34.0169 11.4581L29.412 14.0009V27.4775L17.4394 34.343L5.46668 27.4775L5.46669 14.0009ZM28.9132 14.2764L24.8071 16.5436V16.4928L17.4394 12.3735L10.0715 16.4928V16.5436L5.96555 14.2764V27.1959L17.4394 33.7752L28.9132 27.1959V14.2764Z" fill="#A1AEBF"/>
<path d="M42.8428 28.319V12.9404H45.7604V25.6826H52.8336V28.319H42.8428Z" fill="white"/>
<path d="M59.1328 28.6267C58.0425 28.6267 57.0626 28.4071 56.1931 27.9676C55.3237 27.5282 54.6385 26.8911 54.1376 26.0563C53.6365 25.2215 53.386 24.2182 53.386 23.0465V22.6949C53.386 21.5233 53.6365 20.52 54.1376 19.6852C54.6385 18.8503 55.3237 18.2132 56.1931 17.7739C57.0626 17.3344 58.0425 17.1147 59.1328 17.1147C60.2233 17.1147 61.2032 17.3344 62.0727 17.7739C62.9421 18.2132 63.6273 18.8503 64.1282 19.6852C64.6292 20.52 64.8798 21.5233 64.8798 22.6949V23.0465C64.8798 24.2182 64.6292 25.2215 64.1282 26.0563C63.6273 26.8911 62.9421 27.5282 62.0727 27.9676C61.2032 28.4071 60.2233 28.6267 59.1328 28.6267ZM59.1328 26.1661C59.9876 26.1661 60.6949 25.8952 61.2548 25.3532C61.8148 24.7967 62.0947 24.0058 62.0947 22.9805V22.7609C62.0947 21.7357 61.8148 20.952 61.2548 20.4101C60.7096 19.8536 60.0023 19.5753 59.1328 19.5753C58.2782 19.5753 57.5709 19.8536 57.011 20.4101C56.451 20.952 56.1711 21.7357 56.1711 22.7609V22.9805C56.1711 24.0058 56.451 24.7967 57.011 25.3532C57.5709 25.8952 58.2782 26.1661 59.1328 26.1661Z" fill="white"/>
<path d="M65.9263 22.9147V22.5632C65.9263 21.4207 66.1546 20.4468 66.6115 19.6412C67.0682 18.821 67.6724 18.1985 68.4239 17.7739C69.1902 17.3344 70.0227 17.1147 70.9216 17.1147C71.9236 17.1147 72.6825 17.2905 73.1982 17.642C73.714 17.9935 74.0898 18.3597 74.3255 18.7405H74.7234V17.4223H77.4642V30.2525C77.4642 30.9994 77.2431 31.5925 76.8011 32.032C76.359 32.486 75.7696 32.7131 75.0328 32.7131H67.6945V30.2964H74.0603C74.4728 30.2964 74.6792 30.0767 74.6792 29.6373V26.8032H74.2813C74.1339 27.0376 73.9276 27.2792 73.6624 27.5282C73.3972 27.7626 73.0435 27.9603 72.6015 28.1215C72.1594 28.2825 71.5994 28.3631 70.9216 28.3631C70.0227 28.3631 69.1902 28.1507 68.4239 27.7259C67.6724 27.2865 67.0682 26.6641 66.6115 25.8586C66.1546 25.0384 65.9263 24.0571 65.9263 22.9147ZM71.7173 25.9465C72.572 25.9465 73.2867 25.6755 73.8614 25.1336C74.4361 24.5917 74.7234 23.8301 74.7234 22.8488V22.6291C74.7234 21.6331 74.4361 20.8715 73.8614 20.3443C73.3014 19.8024 72.5868 19.5314 71.7173 19.5314C70.8626 19.5314 70.1479 19.8024 69.5733 20.3443C68.9986 20.8715 68.7113 21.6331 68.7113 22.6291V22.8488C68.7113 23.8301 68.9986 24.5917 69.5733 25.1336C70.1479 25.6755 70.8626 25.9465 71.7173 25.9465Z" fill="white"/>
<path d="M84.7732 28.6267C83.6827 28.6267 82.7028 28.4071 81.8334 27.9676C80.964 27.5282 80.2788 26.8911 79.7778 26.0563C79.2769 25.2215 79.0264 24.2182 79.0264 23.0465V22.6949C79.0264 21.5233 79.2769 20.52 79.7778 19.6852C80.2788 18.8503 80.964 18.2132 81.8334 17.7739C82.7028 17.3344 83.6827 17.1147 84.7732 17.1147C85.8636 17.1147 86.8435 17.3344 87.7129 17.7739C88.5823 18.2132 89.2675 18.8503 89.7685 19.6852C90.2696 20.52 90.5201 21.5233 90.5201 22.6949V23.0465C90.5201 24.2182 90.2696 25.2215 89.7685 26.0563C89.2675 26.8911 88.5823 27.5282 87.7129 27.9676C86.8435 28.4071 85.8636 28.6267 84.7732 28.6267ZM84.7732 26.1661C85.6278 26.1661 86.3352 25.8952 86.8951 25.3532C87.4551 24.7967 87.7351 24.0058 87.7351 22.9805V22.7609C87.7351 21.7357 87.4551 20.952 86.8951 20.4101C86.3499 19.8536 85.6426 19.5753 84.7732 19.5753C83.9185 19.5753 83.2113 19.8536 82.6513 20.4101C82.0914 20.952 81.8114 21.7357 81.8114 22.7609V22.9805C81.8114 24.0058 82.0914 24.7967 82.6513 25.3532C83.2113 25.8952 83.9185 26.1661 84.7732 26.1661Z" fill="white"/>
<path d="M92.0966 28.319V17.4221H94.8816V28.319H92.0966ZM93.489 16.1479C92.988 16.1479 92.5607 15.9869 92.2071 15.6646C91.8681 15.3424 91.6987 14.9176 91.6987 14.3904C91.6987 13.8632 91.8681 13.4384 92.2071 13.1161C92.5607 12.794 92.988 12.6328 93.489 12.6328C94.0048 12.6328 94.4322 12.794 94.7711 13.1161C95.11 13.4384 95.2794 13.8632 95.2794 14.3904C95.2794 14.9176 95.11 15.3424 94.7711 15.6646C94.4322 15.9869 94.0048 16.1479 93.489 16.1479Z" fill="white"/>
<path d="M96.9727 32.7131V17.4223H99.7136V18.7405H100.112C100.362 18.3158 100.752 17.9422 101.283 17.62C101.814 17.2831 102.572 17.1147 103.56 17.1147C104.444 17.1147 105.262 17.3344 106.013 17.7739C106.765 18.1985 107.369 18.8283 107.825 19.6632C108.282 20.498 108.511 21.5086 108.511 22.6949V23.0465C108.511 24.2328 108.282 25.2434 107.825 26.0782C107.369 26.9131 106.765 27.5502 106.013 27.9896C105.262 28.4144 104.444 28.6267 103.56 28.6267C102.896 28.6267 102.336 28.5461 101.879 28.385C101.437 28.2386 101.076 28.0482 100.797 27.8138C100.531 27.5648 100.318 27.3159 100.156 27.0669H99.7578V32.7131H96.9727ZM102.72 26.2101C103.589 26.2101 104.304 25.9391 104.864 25.3972C105.438 24.8407 105.725 24.0351 105.725 22.9805V22.7609C105.725 21.7064 105.438 20.9081 104.864 20.3662C104.289 19.8097 103.574 19.5314 102.72 19.5314C101.865 19.5314 101.15 19.8097 100.575 20.3662C100.001 20.9081 99.7136 21.7064 99.7136 22.7609V22.9805C99.7136 24.0351 100.001 24.8407 100.575 25.3972C101.15 25.9391 101.865 26.2101 102.72 26.2101Z" fill="white"/>
<path d="M114.627 28.6267C113.197 28.6267 112.026 28.3192 111.112 27.704C110.199 27.0888 109.647 26.2101 109.454 25.0676L112.019 24.4086C112.122 24.9212 112.292 25.324 112.527 25.6169C112.778 25.9098 113.08 26.1222 113.434 26.254C113.801 26.3711 114.199 26.4298 114.627 26.4298C115.275 26.4298 115.754 26.3199 116.064 26.1003C116.373 25.8659 116.528 25.5803 116.528 25.2434C116.528 24.9065 116.381 24.6503 116.086 24.4745C115.792 24.2841 115.32 24.1303 114.671 24.0132L114.052 23.9033C113.286 23.7568 112.586 23.5591 111.952 23.3101C111.319 23.0465 110.81 22.6876 110.427 22.2336C110.045 21.7795 109.852 21.1937 109.852 20.476C109.852 19.3922 110.25 18.5647 111.047 17.9935C111.842 17.4077 112.889 17.1147 114.185 17.1147C115.408 17.1147 116.425 17.3857 117.235 17.9276C118.046 18.4695 118.576 19.1799 118.827 20.0587L116.241 20.8495C116.123 20.293 115.88 19.8975 115.511 19.6632C115.157 19.4289 114.715 19.3116 114.185 19.3116C113.654 19.3116 113.249 19.4068 112.969 19.5973C112.69 19.773 112.549 20.022 112.549 20.3443C112.549 20.6958 112.697 20.9593 112.992 21.1351C113.286 21.2962 113.684 21.4207 114.185 21.5086L114.803 21.6185C115.629 21.7649 116.373 21.9626 117.037 22.2116C117.714 22.446 118.245 22.7901 118.628 23.2442C119.026 23.6836 119.225 24.2841 119.225 25.0457C119.225 26.1881 118.804 27.0742 117.964 27.704C117.14 28.3192 116.027 28.6267 114.627 28.6267Z" fill="white"/>
<path d="M124.847 28.4949C123.993 28.4949 123.241 28.3045 122.593 27.9238C121.959 27.5283 121.465 26.9864 121.111 26.298C120.759 25.6097 120.581 24.8187 120.581 23.9254V17.4224H123.366V23.7056C123.366 24.5258 123.565 25.141 123.963 25.551C124.375 25.9612 124.958 26.1662 125.709 26.1662C126.563 26.1662 127.227 25.8879 127.699 25.3314C128.17 24.7602 128.406 23.9693 128.406 22.9587V17.4224H131.191V28.3193H128.45V26.8912H128.053C127.875 27.2574 127.544 27.6162 127.058 27.9677C126.571 28.3193 125.834 28.4949 124.847 28.4949Z" fill="white"/>
<path d="M133.296 28.3192V17.4223H136.036V18.6087H136.434C136.626 18.2425 136.943 17.9276 137.384 17.6639C137.827 17.3857 138.409 17.2466 139.131 17.2466C139.912 17.2466 140.538 17.4004 141.01 17.7079C141.481 18.0008 141.842 18.3889 142.093 18.8723H142.49C142.741 18.4036 143.095 18.0155 143.552 17.7079C144.009 17.4004 144.657 17.2466 145.497 17.2466C146.175 17.2466 146.786 17.393 147.331 17.686C147.891 17.9642 148.333 18.3962 148.658 18.9822C148.996 19.5533 149.166 20.2783 149.166 21.1571V28.3192H146.38V21.3549C146.38 20.7543 146.227 20.3076 145.917 20.0147C145.607 19.7072 145.173 19.5533 144.613 19.5533C143.979 19.5533 143.485 19.7584 143.131 20.1685C142.793 20.5639 142.624 21.1351 142.624 21.8821V28.3192H139.838V21.3549C139.838 20.7543 139.683 20.3076 139.375 20.0147C139.065 19.7072 138.63 19.5533 138.07 19.5533C137.436 19.5533 136.943 19.7584 136.589 20.1685C136.25 20.5639 136.08 21.1351 136.08 21.8821V28.3192H133.296Z" fill="white"/>
</svg>
