<svg width="31" height="31" viewBox="0 0 31 31" fill="none" xmlns="http://www.w3.org/2000/svg">
<path d="M15.0989 10.0886L18.567 13.5625L15.0969 17.0374L16.4687 18.4062L21.3124 13.5625L16.4687 8.71875L15.0989 10.0886Z" fill="white"/>
<path d="M19.9427 10.0886L23.4108 13.5625L19.9408 17.0374L21.3125 18.4062L26.1562 13.5625L21.3125 8.71875L19.9427 10.0886ZM9.6875 8.71875L11.2307 11.625L14.5312 12.0261L12.1094 14.2087L12.5938 17.4375L9.6875 15.6211L6.78125 17.4375L7.26562 14.2087L4.84375 12.0261L8.23438 11.625L9.6875 8.71875Z" fill="white"/>
<path d="M17.1818 29.0625L15.5 28.0938L19.375 21.3125H25.1875C25.442 21.3129 25.6942 21.263 25.9294 21.1658C26.1646 21.0686 26.3784 20.9259 26.5584 20.7459C26.7384 20.5659 26.8811 20.3521 26.9783 20.1169C27.0755 19.8817 27.1254 19.6295 27.125 19.375V7.75C27.1254 7.49546 27.0755 7.24334 26.9783 7.0081C26.8811 6.77286 26.7384 6.55912 26.5584 6.37913C26.3784 6.19914 26.1646 6.05644 25.9294 5.9592C25.6942 5.86197 25.442 5.81212 25.1875 5.8125H5.8125C5.55796 5.81212 5.30584 5.86197 5.0706 5.9592C4.83536 6.05644 4.62162 6.19914 4.44163 6.37913C4.26164 6.55912 4.11894 6.77286 4.0217 7.0081C3.92447 7.24334 3.87462 7.49546 3.875 7.75V19.375C3.87462 19.6295 3.92447 19.8817 4.0217 20.1169C4.11894 20.3521 4.26164 20.5659 4.44163 20.7459C4.62162 20.9259 4.83536 21.0686 5.0706 21.1658C5.30584 21.263 5.55796 21.3129 5.8125 21.3125H14.5312V23.25H5.8125C4.78479 23.25 3.79916 22.8417 3.07246 22.115C2.34576 21.3883 1.9375 20.4027 1.9375 19.375V7.75C1.9375 6.72229 2.34576 5.73666 3.07246 5.00996C3.79916 4.28326 4.78479 3.875 5.8125 3.875H25.1875C26.2152 3.875 27.2008 4.28326 27.9275 5.00996C28.6542 5.73666 29.0625 6.72229 29.0625 7.75V19.375C29.0625 20.4027 28.6542 21.3883 27.9275 22.115C27.2008 22.8417 26.2152 23.25 25.1875 23.25H20.5036L17.1818 29.0625Z" fill="white"/>
</svg>
