<svg width="16" height="17" viewBox="0 0 16 17" fill="none" xmlns="http://www.w3.org/2000/svg">
<path d="M14.9694 8.24579C14.969 7.82008 14.7997 7.41194 14.4986 7.11092C14.1976 6.8099 13.7895 6.64059 13.3638 6.64014C12.9739 6.63968 12.5975 6.78215 12.3056 7.04057C11.2437 6.36106 9.82685 5.93298 8.2641 5.8867L9.22043 2.61616L11.5682 3.05242C11.5682 3.07161 11.5643 3.08967 11.5654 3.10886C11.5794 3.37749 11.6994 3.6296 11.8991 3.80989C12.0987 3.99018 12.3617 4.08392 12.6304 4.07055C12.899 4.05646 13.151 3.93644 13.3312 3.7368C13.5115 3.53716 13.6052 3.2742 13.5918 3.00558C13.5778 2.73694 13.4578 2.48483 13.2581 2.30454C13.0585 2.12426 12.7955 2.03051 12.5268 2.04388C12.3557 2.05299 12.1896 2.10541 12.0443 2.19623C11.8989 2.28704 11.779 2.41328 11.6958 2.56311L11.6949 2.56282L8.86572 2.03711L7.73895 5.88614C6.17225 5.92762 4.75087 6.35344 3.68449 7.03154C3.39385 6.77863 3.02143 6.63959 2.63616 6.64014C2.21048 6.64067 1.80238 6.81 1.50138 7.111C1.20037 7.41201 1.03104 7.8201 1.03052 8.24579C1.03052 8.79323 1.31242 9.29834 1.769 9.59295C1.74046 9.75412 1.72583 9.91745 1.72526 10.0811C1.72526 12.3984 4.53472 14.284 7.98812 14.284C11.4415 14.284 14.2504 12.3985 14.2504 10.0808C14.2504 9.92057 14.2357 9.76254 14.2095 9.60677C14.4413 9.4631 14.6326 9.26275 14.7655 9.02464C14.8984 8.78652 14.9688 8.51848 14.9694 8.24579ZM5.01161 9.33841C5.01165 9.20884 5.03721 9.08055 5.08682 8.96086C5.13644 8.84116 5.20915 8.73241 5.3008 8.64082C5.39245 8.54922 5.50124 8.47658 5.62096 8.42703C5.74068 8.37748 5.86899 8.35199 5.99856 8.35203C6.12813 8.35207 6.25643 8.37762 6.37612 8.42724C6.49581 8.47686 6.60456 8.54957 6.69616 8.64122C6.78775 8.73286 6.8604 8.84165 6.90995 8.96138C6.9595 9.0811 6.98498 9.20941 6.98494 9.33898C6.98487 9.60066 6.88085 9.85159 6.69576 10.0366C6.51067 10.2216 6.25968 10.3254 5.998 10.3254C5.73632 10.3253 5.48538 10.2213 5.3004 10.0362C5.11542 9.85109 5.01154 9.6001 5.01161 9.33841ZM10.3139 12.0073C10.2846 12.0378 9.57655 12.7582 7.97655 12.7582C6.36808 12.7582 5.7247 12.0279 5.69845 11.9969C5.65777 11.9459 5.6384 11.8812 5.64441 11.8163C5.65042 11.7513 5.68134 11.6912 5.73069 11.6486C5.78004 11.606 5.84398 11.5841 5.9091 11.5876C5.97422 11.5911 6.03546 11.6196 6.07997 11.6673C6.09464 11.6831 6.63136 12.254 7.97627 12.254C9.34487 12.254 9.9448 11.6628 9.95101 11.6571C9.99842 11.6138 10.0606 11.5902 10.1248 11.591C10.189 11.5919 10.2505 11.6172 10.2967 11.6617C10.343 11.7063 10.3705 11.7668 10.3737 11.831C10.3769 11.8951 10.3555 11.9584 10.3139 12.0073ZM10.1178 10.3252C9.98823 10.3253 9.85994 10.2998 9.74022 10.2503C9.62051 10.2008 9.51173 10.1281 9.42008 10.0366C9.32843 9.94501 9.25572 9.83628 9.20609 9.71662C9.15646 9.59695 9.13089 9.46867 9.13083 9.33912C9.13078 9.20957 9.15624 9.08127 9.20577 8.96156C9.25529 8.84185 9.32791 8.73306 9.41948 8.64142C9.51105 8.54977 9.61977 8.47706 9.73944 8.42743C9.85911 8.3778 9.98739 8.35223 10.1169 8.35217C10.3786 8.35206 10.6296 8.45589 10.8146 8.64082C10.9997 8.82575 11.1038 9.07663 11.1039 9.33827C11.104 9.59992 11.0002 9.85089 10.8152 10.036C10.6303 10.2211 10.3794 10.3251 10.1178 10.3252Z" fill="black"/>
</svg>
