<svg width="16" height="17" viewBox="0 0 16 17" fill="none" xmlns="http://www.w3.org/2000/svg">
<path d="M14.9116 4.47026C14.3912 4.70128 13.8389 4.85264 13.2733 4.91928C13.8692 4.56305 14.3151 4.00205 14.5275 3.34109C13.9677 3.67354 13.3551 3.90777 12.7162 4.03367C12.4494 3.74891 12.1269 3.52201 11.7688 3.36705C11.4107 3.21208 11.0245 3.13236 10.6343 3.13281C9.0592 3.13281 7.78215 4.40987 7.78215 5.98523C7.78215 6.20847 7.80727 6.42606 7.85609 6.63519C5.48543 6.51609 3.38344 5.38071 1.97657 3.65492C1.72282 4.09025 1.58956 4.58529 1.59049 5.08918C1.59049 6.07865 2.09397 6.95184 2.85936 7.46323C2.40639 7.44885 1.96342 7.32645 1.56734 7.10622L1.56706 7.14234C1.56706 8.5241 2.55032 9.67669 3.85532 9.93916C3.43512 10.0529 2.99454 10.0695 2.56697 9.9877C2.93019 11.1208 3.98345 11.9458 5.23143 11.9686C4.22113 12.7617 2.97338 13.1918 1.68898 13.1898C1.45897 13.1898 1.23178 13.1762 1.00854 13.1497C2.31271 13.988 3.83069 14.4329 5.38101 14.4313C10.6278 14.4313 13.4966 10.0851 13.4966 6.31571C13.4966 6.1921 13.494 6.06877 13.4887 5.94628C14.0472 5.54305 14.5291 5.04317 14.9116 4.47026Z" fill="black"/>
</svg>
