<svg width="16" height="17" viewBox="0 0 16 17" fill="none" xmlns="http://www.w3.org/2000/svg">
<path d="M15.5333 5.08558C15.5333 4.95225 15.3333 3.88558 14.8666 3.41891C14.2666 2.75225 13.5999 2.68558 13.2666 2.68558H13.1999C11.1333 2.55225 8.06659 2.55225 7.99992 2.55225C7.99992 2.55225 4.86659 2.55225 2.79992 2.68558H2.73325C2.39992 2.68558 1.73325 2.75225 1.13325 3.41891C0.666585 3.95225 0.466585 5.01891 0.466585 5.15225C0.466585 5.21891 0.333252 6.41891 0.333252 7.68558V8.81891C0.333252 10.0856 0.466585 11.2856 0.466585 11.3522C0.466585 11.4856 0.666585 12.5522 1.13325 13.0189C1.66659 13.6189 2.33325 13.6856 2.73325 13.7522H2.93325C4.13325 13.8856 7.79992 13.8856 7.93325 13.8856C7.93325 13.8856 11.0666 13.8856 13.1333 13.7522H13.1999C13.5333 13.6856 14.1999 13.6189 14.7999 13.0189C15.2666 12.4856 15.4666 11.4189 15.4666 11.2856C15.4666 11.2189 15.5999 10.0189 15.5999 8.75225V7.61891C15.6666 6.41891 15.5333 5.15225 15.5333 5.08558ZM10.5999 8.35225L6.59992 10.4856C6.53325 10.4856 6.53325 10.5522 6.46659 10.5522C6.39992 10.5522 6.33325 10.5522 6.33325 10.4856C6.26659 10.4189 6.19992 10.3522 6.19992 10.2189V5.88558C6.19992 5.75225 6.26659 5.68558 6.33325 5.61891C6.39992 5.55225 6.53325 5.55225 6.66659 5.61891L10.6666 7.75225C10.7999 7.81891 10.8666 7.88558 10.8666 8.01891C10.8666 8.15225 10.7333 8.28558 10.5999 8.35225Z" fill="black"/>
</svg>
