<svg width="150" height="41" viewBox="0 0 150 41" fill="none" xmlns="http://www.w3.org/2000/svg">
<path d="M74.6965 27.1066H69.6439V13.6806H74.6965V27.1066ZM70.1373 26.6161H74.2031V14.171H70.1373V26.6161ZM81.7268 27.1066H76.7758V13.6806H87.1199C88.6017 13.5613 90.0774 13.9748 91.2784 14.8458C91.7954 15.316 92.1962 15.8985 92.4493 16.5479C92.7025 17.1973 92.8013 17.8961 92.738 18.5898C92.8118 19.7883 92.428 20.9705 91.6633 21.9002C90.7584 22.932 89.2524 23.4637 87.188 23.4823C86.6679 23.496 82.7709 23.4823 81.7297 23.4823L81.7268 27.1066ZM77.2662 26.6161H81.2334V22.987H81.481C81.5314 22.987 86.5909 23.0027 87.1761 22.987C89.0995 22.9703 90.482 22.4965 91.2903 21.5716C91.971 20.7304 92.3091 19.6659 92.2376 18.5888C92.2983 17.9673 92.2141 17.3402 91.9917 16.7563C91.7692 16.1723 91.4144 15.6471 90.9547 15.2215C89.8412 14.4271 88.4788 14.0542 87.113 14.17H77.2692L77.2662 26.6161ZM86.0718 20.4661H81.1998V16.8115H86.1044C86.4521 16.7637 86.8063 16.804 87.134 16.9287C87.4618 17.0534 87.7526 17.2583 87.9794 17.5245C88.1852 17.8648 88.2822 18.2592 88.2577 18.6555C88.2761 19.0234 88.1962 19.3896 88.0258 19.7168C87.7918 19.9972 87.4891 20.213 87.1469 20.3436C86.8048 20.4741 86.4345 20.515 86.0718 20.4622V20.4661ZM81.6932 19.9757H86.0718C86.8811 19.9757 87.3824 19.808 87.6044 19.4627C87.7267 19.2118 87.782 18.9338 87.7653 18.6555C87.7869 18.3632 87.7231 18.071 87.5817 17.8139L87.5758 17.8051C87.3409 17.4618 86.8741 17.3019 86.1044 17.3019H81.6932V19.9757ZM101.743 27.3047C97.312 27.3047 94.6672 26.2111 93.6597 23.9619C93.4948 23.5275 93.3829 23.075 93.3261 22.6142L93.2827 22.3317H98.5544L98.5889 22.5377C98.6295 22.7468 98.7192 22.9437 98.8495 23.1125C99.0577 23.3626 99.7524 23.7824 102.058 23.7824C104.829 23.7824 104.829 23.2989 104.829 23.0389C104.829 22.6005 104.508 22.4504 102.248 22.2111L101.819 22.1709C100.968 22.0914 99.8926 21.9904 99.4011 21.9482C95.2564 21.5755 93.4061 20.2955 93.4061 17.7992C93.4061 15.1773 96.5551 13.4834 101.429 13.4834C105.405 13.4834 107.967 14.5251 109.042 16.5819C109.296 17.0604 109.468 17.5785 109.548 18.114L109.582 18.3897H104.305L104.283 18.168C104.262 17.9948 104.188 17.8322 104.07 17.7031C103.872 17.4402 103.249 17.0057 101.313 17.0057C98.9353 17.0057 98.6077 17.3078 98.6077 17.6334C98.6077 18.0679 99.3587 18.2219 101.766 18.4779C102.769 18.5594 104.383 18.7241 104.935 18.7908C108.41 19.1655 109.96 20.4142 109.96 22.8408C109.961 24.8761 108.535 27.3047 101.743 27.3047ZM93.859 22.8222C93.9085 23.1457 93.9935 23.4627 94.1126 23.7677C95.0304 25.8167 97.5271 26.8143 101.743 26.8143C105.268 26.8143 109.471 26.1277 109.471 22.8408C109.471 20.6898 108.099 19.6246 104.883 19.2783C104.33 19.2116 102.727 19.0478 101.725 18.9654C99.1593 18.6888 98.1162 18.5417 98.1162 17.6334C98.1162 16.6938 99.2403 16.5152 101.315 16.5152C102.954 16.5152 104.013 16.8095 104.462 17.4029C104.584 17.5491 104.677 17.7177 104.734 17.8992H109.011C108.925 17.5199 108.789 17.1535 108.606 16.8095C107.62 14.9272 105.209 13.9738 101.431 13.9738C96.857 13.9738 93.9014 15.4755 93.9014 17.7992C93.9014 20.0159 95.5603 21.1106 99.4465 21.4598C99.9399 21.5019 101.015 21.603 101.867 21.6834L102.299 21.7236C104.398 21.9433 105.324 22.0806 105.324 23.0389C105.324 24.0708 104.127 24.2729 102.06 24.2729C100.147 24.2729 98.9393 23.9874 98.4725 23.4254C98.3286 23.2462 98.2201 23.0415 98.1528 22.8222H93.859ZM119.335 27.288C114.184 27.288 111.342 25.2174 111.342 21.4568V13.6806H116.327V21.4568C116.327 22.7467 117.489 23.4862 119.513 23.4862C121.447 23.4862 122.648 22.7143 122.648 21.4735V13.6806H127.582V21.8688C127.587 25.3126 124.578 27.288 119.332 27.288H119.335ZM111.835 14.171V21.4568C111.835 26.1041 116.531 26.7976 119.335 26.7976C122.235 26.7976 127.097 26.1571 127.097 21.8688V14.171H123.149V21.4735C123.149 22.9938 121.724 23.9767 119.521 23.9767C117.218 23.9767 115.842 23.035 115.842 21.4568V14.171H111.835ZM148.492 27.1066H143.786V21.0449L141.118 27.1066H137.014L134.373 21.0566V27.1066H129.651V13.6806H135.862L139.089 21.0831L142.472 13.6806H148.497L148.492 27.1066ZM144.28 26.6161H147.998V14.171H142.786L139.073 22.2915L135.534 14.171H130.14V26.6161H133.875V18.6967L137.329 26.6191H140.783L144.274 18.7084L144.28 26.6161ZM5.97381 13.9258H1.47974V26.8614H13.8982V23.4176H5.97381V13.9258ZM22.9692 13.6315C17.2327 13.6315 14.2159 16.3338 14.2159 20.3014C14.2159 24.7839 17.3827 27.0575 22.9692 27.0575C29.1192 27.0575 31.7057 24.421 31.7057 20.3014C31.7057 16.118 28.7876 13.6295 22.9692 13.6295V13.6315ZM22.9524 16.9929C23.3429 16.9911 23.7332 17.0137 24.1209 17.0606L19.0968 22.0542C18.8591 21.5197 18.7432 20.9395 18.7574 20.3553C18.7574 18.3259 19.7857 16.991 22.9524 16.991V16.9929ZM22.9692 23.7491C22.5929 23.7508 22.2169 23.7298 21.8432 23.6863L26.8761 18.6839C27.105 19.2096 27.2145 19.7789 27.1968 20.3514C27.1968 22.3259 26.2495 23.7471 22.9692 23.7471V23.7491ZM40.61 21.9835H45.2353C45.1672 22.3026 45.0253 22.6015 44.8209 22.8565C43.8619 23.633 42.6382 24.0108 41.4054 23.9109C40.7849 23.9769 40.1574 23.9096 39.5654 23.7134C38.9734 23.5173 38.4307 23.197 37.9741 22.7741C37.5065 22.0923 37.2843 21.2735 37.3436 20.4505C37.2679 19.588 37.5094 18.7276 38.0235 18.0287C38.6699 17.3029 39.7643 16.99 41.3728 16.99C42.3963 16.9058 43.4185 17.167 44.2741 17.7315C44.5438 17.9444 44.7455 18.2307 44.8544 18.5554H49.1442C49.113 18.0203 48.9836 17.4954 48.7623 17.0067C47.735 14.9302 45.3468 13.6943 41.286 13.6943C37.7541 13.6943 35.3837 14.7654 34.0741 16.3809C33.2093 17.5475 32.7653 18.9698 32.8139 20.4181C32.758 21.8992 33.1905 23.3578 34.0455 24.572C35.3393 26.2395 37.6436 27.0595 40.4126 27.0595C42.2536 27.1871 44.082 26.6746 45.5847 25.6098L45.7011 26.8614H49.2646V19.1989H40.61V21.9835ZM59.3787 13.6286C53.6432 13.6286 50.6255 16.3308 50.6255 20.2984C50.6255 24.781 53.7912 27.0546 59.3787 27.0546C65.5297 27.0546 68.1162 24.418 68.1162 20.2984C68.1162 16.118 65.1982 13.6295 59.3787 13.6295V13.6286ZM59.363 16.99C59.7432 16.9889 60.1231 17.0105 60.5008 17.0547L55.4965 22.0316C55.2662 21.503 55.1541 20.9312 55.1679 20.3553C55.1639 18.3259 56.1962 16.991 59.363 16.991V16.99ZM59.3787 23.7461C58.9925 23.7478 58.6065 23.7255 58.2232 23.6795L63.2728 18.6594C63.5104 19.192 63.624 19.771 63.6054 20.3534C63.6074 22.3259 62.6639 23.7471 59.3787 23.7471V23.7461Z" fill="white"/>
</svg>
