<svg width="150" height="41" viewBox="0 0 150 41" fill="none" xmlns="http://www.w3.org/2000/svg">
<path d="M10.1099 29.3277C7.22006 32.2001 2.32576 32.1886 0.958919 28.3604C0.69131 27.6109 0.477347 26.8403 0.319978 26.054C-0.322557 22.8432 0.0072152 19.5153 1.2676 16.4909C2.52797 13.4665 4.66235 10.8816 7.40082 9.06286C10.1393 7.24416 13.3589 6.27344 16.6524 6.27344C19.9459 6.27344 23.1655 7.24416 25.9039 9.06286C28.6425 10.8816 30.7768 13.4665 32.0372 16.491C33.2976 19.5153 33.6273 22.8432 32.9848 26.054C32.8275 26.8403 32.6135 27.6109 32.3458 28.3604C30.979 32.1886 26.0847 32.2001 23.1948 29.3277L18.7339 24.8938C18.3077 24.4702 18.3518 23.7716 18.4694 23.1841C18.5408 22.827 18.5041 22.4567 18.3639 22.1203C18.2236 21.7838 17.9863 21.4962 17.6816 21.2939C17.377 21.0916 17.0188 20.9836 16.6524 20.9836C16.286 20.9836 15.9279 21.0916 15.6232 21.2939C15.3185 21.4962 15.0811 21.7838 14.9409 22.1203C14.8006 22.4567 14.764 22.827 14.8355 23.1841C14.9531 23.7716 14.997 24.4702 14.5708 24.8938L10.1099 29.3277Z" fill="#728095"/>
<path d="M46.8524 25.3539H51.3285V27.9757H43.4353V14.0327H46.8524V25.3539Z" fill="white"/>
<path d="M57.435 28.1345C56.3426 28.1345 55.3568 27.9028 54.4775 27.4394C53.6116 26.9759 52.9255 26.3139 52.4193 25.4532C51.9264 24.5925 51.6799 23.5862 51.6799 22.4342C51.6799 21.2955 51.933 20.2957 52.4392 19.435C52.9455 18.5612 53.6383 17.8925 54.5174 17.429C55.3967 16.9656 56.3826 16.7339 57.475 16.7339C58.5674 16.7339 59.5532 16.9656 60.4324 17.429C61.3117 17.8925 62.0044 18.5612 62.5106 19.435C63.0168 20.2957 63.27 21.2955 63.27 22.4342C63.27 23.5729 63.0102 24.5792 62.4907 25.4532C61.9844 26.3139 61.2851 26.9759 60.3924 27.4394C59.5132 27.9028 58.5274 28.1345 57.435 28.1345ZM57.435 25.1949C58.0877 25.1949 58.6406 24.9567 59.0936 24.48C59.5599 24.0033 59.793 23.3214 59.793 22.4342C59.793 21.547 59.5664 20.8651 59.1135 20.3884C58.6739 19.9117 58.1277 19.6734 57.475 19.6734C56.8089 19.6734 56.256 19.9117 55.8164 20.3884C55.3767 20.8519 55.1569 21.5337 55.1569 22.4342C55.1569 23.3214 55.3701 24.0033 55.7964 24.48C56.2361 24.9567 56.7823 25.1949 57.435 25.1949Z" fill="white"/>
<path d="M68.7197 16.7339C69.5057 16.7339 70.1918 16.8928 70.778 17.2106C71.3774 17.5283 71.8371 17.9455 72.1568 18.4618V16.8928H75.5738V27.9557C75.5738 28.9753 75.3674 29.8956 74.9544 30.7165C74.5547 31.5507 73.9352 32.2128 73.096 32.7027C72.2701 33.1927 71.2376 33.4376 69.9987 33.4376C68.3467 33.4376 67.0079 33.047 65.982 32.2658C64.9563 31.4977 64.3701 30.4517 64.2236 29.1276H67.6007C67.7072 29.5513 67.9604 29.8824 68.3601 30.1207C68.7597 30.3722 69.2526 30.4981 69.8388 30.4981C70.5449 30.4981 71.1043 30.2928 71.5173 29.8824C71.9436 29.4851 72.1568 28.843 72.1568 27.9557V26.3867C71.8237 26.903 71.3641 27.3268 70.778 27.6578C70.1918 27.9756 69.5057 28.1345 68.7197 28.1345C67.8005 28.1345 66.9679 27.9028 66.2219 27.4394C65.4758 26.9627 64.883 26.294 64.4434 25.4333C64.0171 24.5594 63.804 23.5531 63.804 22.4143C63.804 21.2756 64.0171 20.2759 64.4434 19.4152C64.883 18.5545 65.4758 17.8925 66.2219 17.429C66.9679 16.9656 67.8005 16.7339 68.7197 16.7339ZM72.1568 22.4342C72.1568 21.5867 71.917 20.9181 71.4374 20.4282C70.9711 19.9383 70.3982 19.6933 69.7189 19.6933C69.0394 19.6933 68.46 19.9383 67.9803 20.4282C67.5141 20.9049 67.281 21.5669 67.281 22.4143C67.281 23.2618 67.5141 23.9371 67.9803 24.4403C68.46 24.9301 69.0394 25.1751 69.7189 25.1751C70.3982 25.1751 70.9711 24.9301 71.4374 24.4403C71.917 23.9503 72.1568 23.2817 72.1568 22.4342Z" fill="white"/>
<path d="M82.5222 28.1345C81.4298 28.1345 80.4439 27.9028 79.5647 27.4394C78.6988 26.9759 78.0127 26.3139 77.5064 25.4532C77.0136 24.5925 76.7671 23.5862 76.7671 22.4342C76.7671 21.2955 77.0202 20.2957 77.5265 19.435C78.0327 18.5612 78.7254 17.8925 79.6046 17.429C80.4839 16.9656 81.4697 16.7339 82.5621 16.7339C83.6545 16.7339 84.6404 16.9656 85.5195 17.429C86.3988 17.8925 87.0915 18.5612 87.5978 19.435C88.104 20.2957 88.3572 21.2955 88.3572 22.4342C88.3572 23.5729 88.0974 24.5792 87.5778 25.4532C87.0716 26.3139 86.3722 26.9759 85.4796 27.4394C84.6004 27.9028 83.6145 28.1345 82.5222 28.1345ZM82.5222 25.1949C83.1749 25.1949 83.7278 24.9567 84.1808 24.48C84.647 24.0033 84.8802 23.3214 84.8802 22.4342C84.8802 21.547 84.6536 20.8651 84.2007 20.3884C83.7611 19.9117 83.2149 19.6734 82.5621 19.6734C81.896 19.6734 81.3432 19.9117 80.9035 20.3884C80.464 20.8519 80.2441 21.5337 80.2441 22.4342C80.2441 23.3214 80.4573 24.0033 80.8836 24.48C81.3232 24.9567 81.8694 25.1949 82.5222 25.1949Z" fill="white"/>
<path d="M91.2887 15.7408C90.6892 15.7408 90.1964 15.5687 89.81 15.2244C89.437 14.8669 89.2505 14.43 89.2505 13.9136C89.2505 13.3839 89.437 12.9469 89.81 12.6027C90.1964 12.2452 90.6892 12.0664 91.2887 12.0664C91.8749 12.0664 92.3545 12.2452 92.7275 12.6027C93.1138 12.9469 93.307 13.3839 93.307 13.9136C93.307 14.43 93.1138 14.8669 92.7275 15.2244C92.3545 15.5687 91.8749 15.7408 91.2887 15.7408ZM92.9872 16.8928V27.9757H89.5702V16.8928H92.9872Z" fill="white"/>
<path d="M98.2811 18.4618C98.614 17.9455 99.0736 17.5283 99.6601 17.2106C100.247 16.8928 100.933 16.7339 101.718 16.7339C102.638 16.7339 103.47 16.9656 104.216 17.429C104.962 17.8925 105.549 18.5545 105.975 19.4152C106.414 20.2759 106.635 21.2756 106.635 22.4143C106.635 23.5531 106.414 24.5594 105.975 25.4333C105.549 26.294 104.962 26.9627 104.216 27.4394C103.47 27.9028 102.638 28.1345 101.718 28.1345C100.945 28.1345 100.26 27.9756 99.6601 27.6578C99.0736 27.34 98.614 26.9296 98.2811 26.4264V33.2588H94.8643V16.8928H98.2811V18.4618ZM103.158 22.4143C103.158 21.5669 102.918 20.9049 102.438 20.4282C101.971 19.9383 101.392 19.6933 100.699 19.6933C100.02 19.6933 99.4404 19.9383 98.9604 20.4282C98.4949 20.9181 98.2617 21.5867 98.2617 22.4342C98.2617 23.2817 98.4949 23.9503 98.9604 24.4403C99.4404 24.9301 100.02 25.1751 100.699 25.1751C101.379 25.1751 101.958 24.9301 102.438 24.4403C102.918 23.9371 103.158 23.2618 103.158 22.4143Z" fill="white"/>
<path d="M112.364 28.1345C111.391 28.1345 110.525 27.969 109.765 27.638C109.006 27.3069 108.406 26.8568 107.967 26.2873C107.528 25.7047 107.281 25.0559 107.228 24.3409H110.605C110.645 24.7249 110.825 25.036 111.144 25.2744C111.465 25.5127 111.857 25.6319 112.324 25.6319C112.75 25.6319 113.076 25.5525 113.302 25.3936C113.542 25.2215 113.662 25.0029 113.662 24.7381C113.662 24.4203 113.496 24.1886 113.163 24.043C112.83 23.8841 112.29 23.712 111.544 23.5266C110.745 23.3412 110.079 23.1492 109.546 22.9506C109.013 22.7388 108.554 22.4143 108.167 21.9774C107.78 21.5272 107.588 20.9247 107.588 20.17C107.588 19.5344 107.761 18.9584 108.107 18.442C108.466 17.9124 108.986 17.4952 109.666 17.1907C110.358 16.8862 111.178 16.7339 112.124 16.7339C113.522 16.7339 114.621 17.0781 115.421 17.7667C116.234 18.4553 116.7 19.3689 116.82 20.5076H113.662C113.609 20.1236 113.436 19.8191 113.143 19.5939C112.863 19.3689 112.49 19.2563 112.024 19.2563C111.624 19.2563 111.317 19.3358 111.105 19.4947C110.892 19.6403 110.785 19.8456 110.785 20.1104C110.785 20.4282 110.952 20.6665 111.285 20.8254C111.631 20.9843 112.163 21.1432 112.883 21.302C113.709 21.5139 114.381 21.7258 114.901 21.9376C115.421 22.1363 115.874 22.4672 116.26 22.9308C116.659 23.3809 116.867 23.99 116.88 24.7581C116.88 25.4068 116.693 25.9894 116.32 26.5059C115.961 27.009 115.434 27.4063 114.741 27.6975C114.062 27.9889 113.269 28.1345 112.364 28.1345Z" fill="white"/>
<path d="M129.381 16.8928V27.9757H125.964V26.4662C125.618 26.9561 125.144 27.3533 124.545 27.6579C123.959 27.9492 123.307 28.0948 122.587 28.0948C121.734 28.0948 120.981 27.9095 120.329 27.5387C119.676 27.1547 119.17 26.6052 118.811 25.8902C118.451 25.1752 118.271 24.3344 118.271 23.3677V16.8928H121.667V22.9109C121.667 23.6524 121.861 24.2284 122.247 24.6389C122.633 25.0493 123.153 25.2546 123.806 25.2546C124.472 25.2546 124.998 25.0493 125.384 24.6389C125.77 24.2284 125.964 23.6524 125.964 22.9109V16.8928H129.381Z" fill="white"/>
<path d="M145.464 16.7734C146.849 16.7734 147.948 17.1905 148.761 18.0247C149.587 18.8589 150 20.0175 150 21.5005V27.9755H146.603V21.9574C146.603 21.2423 146.41 20.6928 146.023 20.3088C145.65 19.9116 145.131 19.7129 144.464 19.7129C143.799 19.7129 143.272 19.9116 142.886 20.3088C142.513 20.6928 142.327 21.2423 142.327 21.9574V27.9755H138.929V21.9574C138.929 21.2423 138.736 20.6928 138.35 20.3088C137.977 19.9116 137.457 19.7129 136.791 19.7129C136.125 19.7129 135.599 19.9116 135.213 20.3088C134.839 20.6928 134.653 21.2423 134.653 21.9574V27.9755H131.236V16.8926H134.653V18.2829C135 17.8195 135.453 17.4553 136.012 17.1905C136.572 16.9124 137.204 16.7734 137.91 16.7734C138.75 16.7734 139.496 16.9522 140.148 17.3097C140.814 17.6672 141.334 18.177 141.707 18.8391C142.093 18.2299 142.62 17.7334 143.286 17.3494C143.951 16.9654 144.678 16.7734 145.464 16.7734Z" fill="white"/>
</svg>
