<svg width="150" height="41" viewBox="0 0 150 41" fill="none" xmlns="http://www.w3.org/2000/svg">
<path d="M44.8733 13.6454H48.5245V28.3188H44.8733V13.6454ZM49.9727 22.7784C49.9727 19.1494 52.2121 16.9841 55.6686 16.9841C59.125 16.9841 61.3644 19.1494 61.3644 22.7784C61.3644 26.4075 59.1737 28.5849 55.6686 28.5849C52.1634 28.5849 49.9727 26.468 49.9727 22.7784ZM57.701 22.7784C57.701 20.7825 56.91 19.6091 55.6686 19.6091C54.4272 19.6091 53.6483 20.8188 53.6483 22.7784C53.6483 24.7381 54.415 25.9236 55.6686 25.9236C56.9221 25.9236 57.701 24.8107 57.701 22.7905V22.7784ZM62.7396 29.0325H66.2448C66.4116 29.4008 66.6936 29.7058 67.0489 29.902C67.4041 30.0981 67.8137 30.175 68.2164 30.1212C69.6038 30.1212 70.3341 29.3712 70.3341 28.2825V26.2502H70.261C69.9702 26.8731 69.4981 27.3949 68.9058 27.7486C68.3136 28.1022 67.6283 28.2713 66.9385 28.2341C64.2731 28.2341 62.5084 26.2139 62.5084 22.7421C62.5084 19.2704 64.1879 17.0809 66.9872 17.0809C67.6986 17.0532 68.4016 17.2422 69.002 17.6227C69.6024 18.0032 70.0714 18.557 70.3462 19.2099V17.1897H73.9974V28.1978C73.9974 30.847 71.6485 32.4921 68.1799 32.4921C64.9547 32.4921 62.9465 31.0526 62.7396 29.0446V29.0325ZM70.3462 22.7663C70.3462 21.0002 69.5308 19.8873 68.2407 19.8873C66.9506 19.8873 66.1596 20.9881 66.1596 22.7663C66.1596 24.5446 66.9385 25.5486 68.2407 25.5486C69.543 25.5486 70.3462 24.5688 70.3462 22.7784V22.7663ZM75.3727 22.7663C75.3727 19.1373 77.612 16.972 81.0685 16.972C84.5249 16.972 86.7764 19.1373 86.7764 22.7663C86.7764 26.3954 84.5858 28.5728 81.0685 28.5728C77.5512 28.5728 75.3727 26.468 75.3727 22.7784V22.7663ZM83.1009 22.7663C83.1009 20.7704 82.3099 19.597 81.0685 19.597C79.8271 19.597 79.109 20.8188 79.109 22.7905C79.109 24.7623 79.8758 25.9357 81.1171 25.9357C82.3585 25.9357 83.1009 24.8107 83.1009 22.7905V22.7663ZM88.1639 14.5526C88.1543 14.1862 88.2544 13.8253 88.4515 13.5155C88.6486 13.2057 88.9338 12.961 89.2709 12.8125C89.608 12.664 89.9819 12.6184 90.3452 12.6813C90.7085 12.7443 91.0448 12.9131 91.3114 13.1662C91.5782 13.4194 91.7632 13.7455 91.8432 14.1034C91.9231 14.4612 91.8944 14.8345 91.7605 15.1761C91.6268 15.5176 91.3939 15.812 91.0916 16.0219C90.7894 16.2318 90.4311 16.3478 90.0625 16.3551C89.8181 16.3717 89.5729 16.338 89.3422 16.256C89.1115 16.174 88.9004 16.0455 88.7221 15.8784C88.5438 15.7115 88.4022 15.5096 88.3062 15.2856C88.21 15.0617 88.1616 14.8203 88.1639 14.5768V14.5526ZM88.1639 17.2139H91.815V28.3188H88.1639V17.2139ZM105.069 22.7663C105.069 26.3954 103.45 28.4639 100.675 28.4639C99.9637 28.5093 99.2553 28.3364 98.6458 27.9687C98.0363 27.6008 97.5552 27.0559 97.2674 26.4075H97.1944V31.8752H93.5433V17.1897H97.1944V19.1736H97.2674C97.5418 18.5144 98.0137 17.9553 98.6191 17.5722C99.2245 17.1891 99.9339 17.0007 100.651 17.0325C103.45 17.0809 105.117 19.1615 105.117 22.7905L105.069 22.7663ZM101.418 22.7663C101.418 21.0002 100.602 19.8752 99.3243 19.8752C98.0464 19.8752 97.2309 21.0123 97.2188 22.7663C97.2066 24.5204 98.0464 25.6454 99.3243 25.6454C100.602 25.6454 101.418 24.5446 101.418 22.7905V22.7663ZM111.337 16.9599C114.367 16.9599 116.205 18.3873 116.29 20.6736H112.967C112.967 19.8873 112.31 19.3913 111.3 19.3913C110.29 19.3913 109.84 19.7784 109.84 20.347C109.84 20.9155 110.241 21.097 111.057 21.2663L113.393 21.7381C115.621 22.2099 116.57 23.1051 116.57 24.7865C116.57 27.0849 114.464 28.5607 111.361 28.5607C108.257 28.5607 106.225 27.0849 106.067 24.8228H109.584C109.694 25.6454 110.351 26.1292 111.422 26.1292C112.493 26.1292 112.98 25.7784 112.98 25.1978C112.98 24.6172 112.639 24.4962 111.763 24.3147L109.657 23.8672C107.479 23.4196 106.334 22.2704 106.334 20.5768C106.359 18.3994 108.318 16.9841 111.337 16.9841V16.9599ZM128.753 28.2946H125.235V26.226H125.162C124.969 26.9205 124.543 27.5284 123.954 27.9487C123.365 28.369 122.649 28.5764 121.925 28.5365C121.37 28.5678 120.815 28.4805 120.297 28.2803C119.78 28.0801 119.311 27.7719 118.923 27.3762C118.536 26.9806 118.238 26.5068 118.05 25.987C117.863 25.4672 117.79 24.9134 117.836 24.3631V17.1897H121.487V23.5284C121.487 24.847 122.168 25.5486 123.3 25.5486C123.566 25.5491 123.828 25.4933 124.071 25.3848C124.312 25.2763 124.528 25.1176 124.703 24.9194C124.878 24.7212 125.009 24.4881 125.086 24.2357C125.162 23.9833 125.185 23.7174 125.15 23.4559V17.1897H128.801L128.753 28.2946ZM130.517 17.1897H134.047V19.3309H134.12C134.313 18.6456 134.731 18.0434 135.305 17.6188C135.88 17.1942 136.581 16.9709 137.296 16.9841C138.025 16.9261 138.748 17.1428 139.324 17.5911C139.898 18.0394 140.283 18.6863 140.4 19.4034H140.473C140.693 18.6787 141.151 18.0478 141.773 17.6097C142.393 17.1717 143.144 16.9515 143.905 16.9841C144.401 16.9675 144.896 17.055 145.356 17.2408C145.817 17.4265 146.232 17.7065 146.576 18.0624C146.921 18.4184 147.186 18.8424 147.355 19.3068C147.523 19.7712 147.593 20.2658 147.556 20.7583V28.3188H143.905V21.726C143.905 20.5163 143.357 19.9599 142.335 19.9599C142.107 19.958 141.881 20.0046 141.673 20.0968C141.465 20.189 141.279 20.3245 141.128 20.4942C140.977 20.6639 140.864 20.8638 140.797 21.0804C140.73 21.2972 140.711 21.5256 140.741 21.7502V28.3188H137.272V21.6776C137.272 20.5647 136.724 19.9599 135.726 19.9599C135.496 19.96 135.268 20.0086 135.058 20.1026C134.848 20.1967 134.659 20.334 134.507 20.5055C134.353 20.6769 134.239 20.8786 134.17 21.0975C134.102 21.3162 134.08 21.5469 134.108 21.7744V28.3188H130.457L130.517 17.1897Z" fill="white"/>
<path d="M34.6616 14.3108C34.0422 12.9032 33.2225 11.5913 32.2274 10.4156C30.7566 8.62571 28.9211 7.16569 26.8416 6.13167C24.7622 5.09767 22.4859 4.51309 20.1628 4.41642C17.8397 4.31976 15.5223 4.71319 13.3631 5.57086C11.204 6.4285 9.25212 7.73093 7.6359 9.3924C6.01968 11.0539 4.77579 13.0367 3.98611 15.2104C3.19642 17.3841 2.87883 19.6994 3.05426 22.0038C3.2297 24.3084 3.89415 26.5498 5.0039 28.5806C6.11366 30.6116 7.64356 32.3858 9.4929 33.7866C10.6795 34.7034 11.9907 35.4487 13.3875 36.0003C15.3457 36.798 17.4416 37.2088 19.5579 37.21C23.9264 37.2004 28.1128 35.4696 31.1996 32.397C34.2863 29.3245 36.0215 25.1609 36.0247 20.8188C36.0278 18.5791 35.5638 16.3631 34.6616 14.3108ZM19.5457 7.74223C21.4463 7.74203 23.3238 8.1549 25.0468 8.9519C24.6267 9.13235 24.1849 9.25839 23.7324 9.32691C22.2435 9.54114 20.8642 10.2282 19.8004 11.2856C18.7365 12.343 18.0452 13.7139 17.8297 15.1938C17.7351 16.0238 17.3553 16.7959 16.7544 17.38C16.1536 17.964 15.3685 18.324 14.5315 18.3995C13.0425 18.6137 11.6632 19.3008 10.5994 20.3582C9.53559 21.4156 8.84432 22.7865 8.62879 24.2664C8.55581 25.0556 8.21705 25.7973 7.66732 26.3713C6.71881 24.3793 6.29272 22.1811 6.42868 19.9814C6.56465 17.7817 7.25827 15.652 8.44498 13.7903C9.63168 11.9287 11.2729 10.3957 13.216 9.33398C15.159 8.27228 17.3407 7.7164 19.5579 7.71803L19.5457 7.74223ZM9.48073 29.2866C9.62677 29.1535 9.77282 29.0326 9.91887 28.8874C11.0016 27.844 11.6966 26.4667 11.8905 24.9801C11.9691 24.1445 12.3444 23.364 12.9493 22.7785C13.5314 22.1763 14.3149 21.8063 15.1522 21.7382C16.6411 21.524 18.0204 20.8369 19.0842 19.7795C20.1481 18.7221 20.8394 17.3512 21.0549 15.8713C21.1076 14.9973 21.4849 14.1738 22.1137 13.5608C22.7102 12.9703 23.5011 12.6137 24.3409 12.5567C25.7088 12.3697 26.9845 11.7653 27.9921 10.8269C29.1394 11.773 30.1114 12.9111 30.8643 14.1898C30.8181 14.2519 30.765 14.3087 30.7061 14.3592C30.1252 14.9667 29.3428 15.3448 28.5033 15.4237C27.0127 15.6342 25.6314 16.3201 24.5668 17.378C23.5024 18.4361 22.8123 19.8091 22.6006 21.2906C22.5147 22.1234 22.142 22.9011 21.5454 23.4919C20.9486 24.0828 20.1649 24.4504 19.3267 24.5326C17.8334 24.7451 16.449 25.4309 15.3789 26.4878C14.309 27.5448 13.6105 28.9165 13.3875 30.3995C13.322 30.9907 13.1176 31.5584 12.7911 32.0568C11.5424 31.3198 10.4241 30.384 9.48073 29.2866ZM19.5457 33.9559C18.3108 33.9573 17.0817 33.7862 15.8946 33.4479C16.3007 32.6955 16.5647 31.8754 16.6735 31.0285C16.7588 30.1976 17.1299 29.4213 17.7241 28.8308C18.3182 28.2402 19.0992 27.8714 19.9352 27.7866C21.4263 27.5748 22.8084 26.8888 23.8747 25.8311C24.9408 24.7736 25.6339 23.4013 25.8501 21.9197C25.9354 21.0887 26.3065 20.3125 26.9006 19.7219C27.4948 19.1313 28.2758 18.7625 29.1118 18.6777C30.2339 18.5327 31.3035 18.1174 32.2274 17.468C32.7406 19.401 32.8013 21.425 32.4051 23.3849C32.009 25.3449 31.1663 27.1886 29.9419 28.7747C28.7176 30.3605 27.1441 31.6468 25.3418 32.5345C23.5398 33.4221 21.5571 33.8877 19.5457 33.8955V33.9559Z" fill="white"/>
</svg>
