<svg width="150" height="41" viewBox="0 0 150 41" fill="none" xmlns="http://www.w3.org/2000/svg">
<path d="M59.2826 12.3477H56.1404V26.44H64.839V23.6787H59.2826V12.3477Z" fill="white"/>
<path d="M65.1394 21.6599C65.1394 24.6688 67.1704 26.6684 70.2359 26.6684C73.2823 26.6684 75.3133 24.6688 75.3133 21.6599C75.3133 18.651 73.2823 16.6323 70.2359 16.6323C67.1704 16.6323 65.1394 18.651 65.1394 21.6599ZM68.1091 21.6408C68.1091 20.2126 68.9522 19.2604 70.2359 19.2604C71.5005 19.2604 72.3435 20.2126 72.3435 21.6408C72.3435 23.0882 71.5005 24.0404 70.2359 24.0404C68.9522 24.0404 68.1091 23.0882 68.1091 21.6408Z" fill="white"/>
<path d="M75.7871 21.5078C75.7871 24.3833 77.6648 26.3258 80.328 26.3258C81.6118 26.3258 82.723 25.8687 83.2786 25.1261V26.4401C83.2786 27.7541 82.4547 28.63 80.9986 28.63C79.6957 28.63 78.7952 28.0207 78.7377 26.9352H75.7488C76.017 29.5442 78.048 31.2962 80.8261 31.2962C84.1025 31.2962 86.1717 29.1824 86.1717 25.8306V16.9182H83.5085L83.3553 17.8894C82.8188 17.1086 81.6883 16.5945 80.3855 16.5945C77.7031 16.5945 75.7871 18.594 75.7871 21.5078ZM78.7761 21.4316C78.7761 20.0604 79.6957 19.1463 80.8645 19.1463C82.2248 19.1463 83.2211 20.0414 83.2211 21.4316C83.2211 22.8218 82.2439 23.7739 80.8836 23.7739C79.7149 23.7739 78.7761 22.8218 78.7761 21.4316Z" fill="white"/>
<path d="M87.032 21.6599C87.032 24.6688 89.063 26.6684 92.1288 26.6684C95.1753 26.6684 97.206 24.6688 97.206 21.6599C97.206 18.651 95.1753 16.6323 92.1288 16.6323C89.063 16.6323 87.032 18.651 87.032 21.6599ZM90.0016 21.6408C90.0016 20.2126 90.8446 19.2604 92.1288 19.2604C93.3929 19.2604 94.2358 20.2126 94.2358 21.6408C94.2358 23.0882 93.3929 24.0404 92.1288 24.0404C90.8446 24.0404 90.0016 23.0882 90.0016 21.6408Z" fill="white"/>
<path d="M99.7499 15.4327C100.669 15.4327 101.417 14.69 101.417 13.7569C101.417 12.8238 100.669 12.1001 99.7499 12.1001C98.8113 12.1001 98.064 12.8238 98.064 13.7569C98.064 14.69 98.8113 15.4327 99.7499 15.4327ZM98.2552 26.44H101.225V16.9182H98.2552V26.44Z" fill="white"/>
<path d="M102.954 31.0106H105.867V25.4879C106.422 26.2116 107.687 26.7067 109.009 26.7067C111.863 26.7067 113.588 24.5357 113.511 21.5268C113.434 18.4608 111.653 16.6135 108.989 16.6135C107.629 16.6135 106.346 17.2039 105.809 18.0799L105.655 16.9182H102.954V31.0106ZM105.924 21.6791C105.924 20.2509 106.882 19.2987 108.261 19.2987C109.66 19.2987 110.541 20.2699 110.541 21.6791C110.541 23.0884 109.66 24.0596 108.261 24.0596C106.882 24.0596 105.924 23.1074 105.924 21.6791Z" fill="white"/>
<path d="M113.825 23.4312C113.902 25.3546 115.435 26.6876 117.849 26.6876C120.168 26.6876 121.777 25.4688 121.777 23.5074C121.777 22.0982 120.934 21.165 119.362 20.7841L117.658 20.3651C117.045 20.2128 116.661 20.0604 116.661 19.5653C116.661 19.0701 117.063 18.7464 117.658 18.7464C118.328 18.7464 118.768 19.1844 118.75 19.8319H121.413C121.336 17.8513 119.823 16.6135 117.715 16.6135C115.589 16.6135 113.998 17.8704 113.998 19.7748C113.998 21.0507 114.707 22.0982 116.603 22.5933L118.289 23.0312C118.788 23.1645 118.998 23.3931 118.998 23.7168C118.998 24.1929 118.558 24.4976 117.811 24.4976C116.948 24.4976 116.489 24.0977 116.489 23.4312H113.825Z" fill="white"/>
<path d="M126.293 26.6876C127.462 26.6876 128.631 26.1544 129.225 25.3736L129.417 26.4401H132.195V16.9182H129.244V21.8696C129.244 23.2978 128.823 24.0786 127.462 24.0786C126.408 24.0786 125.718 23.6025 125.718 21.8315V16.9182H122.768V22.8979C122.768 25.1642 124.032 26.6876 126.293 26.6876Z" fill="white"/>
<path d="M136.873 26.4401V21.2411C136.873 19.6414 137.736 19.1844 138.579 19.1844C139.517 19.1844 140.13 19.7557 140.13 20.9364V26.4401H143.043V21.2411C143.043 19.6224 143.886 19.1654 144.729 19.1654C145.667 19.1654 146.3 19.7366 146.3 20.9364V26.4401H149.174V20.2128C149.174 18.0418 148.024 16.5945 145.552 16.5945C144.173 16.5945 143.043 17.2609 142.544 18.2893C141.97 17.2609 140.973 16.5945 139.383 16.5945C138.329 16.5945 137.352 17.0705 136.778 17.8323L136.663 16.9182H133.903V26.4401H136.873Z" fill="white"/>
<path d="M0 20.8189C0 13.1145 6.28372 6.8689 14.0351 6.8689H32.4561C40.2075 6.8689 46.4912 13.1145 46.4912 20.8189V34.769H14.0351C6.28372 34.769 0 28.5233 0 20.8189Z" fill="white"/>
<path d="M32.4562 12.1001H14.0351C9.19051 12.1001 5.26318 16.0036 5.26318 20.8189C5.26318 25.6341 9.19051 29.5376 14.0351 29.5376H32.4562C37.3008 29.5376 41.2281 25.6341 41.2281 20.8189C41.2281 16.0036 37.3008 12.1001 32.4562 12.1001Z" fill="#4B5567"/>
<path d="M14.0351 25.1782C16.4574 25.1782 18.4211 23.2265 18.4211 20.8189C18.4211 18.4112 16.4574 16.4595 14.0351 16.4595C11.6128 16.4595 9.64917 18.4112 9.64917 20.8189C9.64917 23.2265 11.6128 25.1782 14.0351 25.1782Z" fill="white"/>
<path d="M12.2816 19.9469C12.7663 19.9469 13.1592 19.5565 13.1592 19.075C13.1592 18.5935 12.7663 18.2031 12.2816 18.2031C11.797 18.2031 11.4041 18.5935 11.4041 19.075C11.4041 19.5565 11.797 19.9469 12.2816 19.9469Z" fill="#0D0D0D"/>
<path d="M33.3337 25.1782C35.756 25.1782 37.7197 23.2265 37.7197 20.8189C37.7197 18.4112 35.756 16.4595 33.3337 16.4595C30.9114 16.4595 28.9478 18.4112 28.9478 20.8189C28.9478 23.2265 30.9114 25.1782 33.3337 25.1782Z" fill="white"/>
<path d="M31.5793 19.9469C32.0639 19.9469 32.4568 19.5565 32.4568 19.075C32.4568 18.5935 32.0639 18.2031 31.5793 18.2031C31.0946 18.2031 30.7017 18.5935 30.7017 19.075C30.7017 19.5565 31.0946 19.9469 31.5793 19.9469Z" fill="#0D0D0D"/>
</svg>
