<svg width="16" height="17" viewBox="0 0 16 17" fill="none" xmlns="http://www.w3.org/2000/svg">
<path d="M5.35884 2.66455C4.85049 2.66455 3.31791 3.28628 3.04295 3.41053C2.76799 3.53478 2.4628 3.92265 2.1165 4.5628C1.76974 5.20295 1.49147 5.95129 1.03935 7.05207C0.587701 8.15284 0.482347 10.275 0.497465 10.9227C0.512583 11.5704 0.586756 12.0764 1.25053 12.4596C1.91383 12.8422 2.5006 13.2429 3.11807 13.4838C3.73602 13.7248 4.15743 13.8981 4.44373 13.6572C4.73002 13.4163 4.91852 12.9944 4.91852 12.9944C4.91852 12.9944 5.1897 12.6178 4.67758 12.392C4.16546 12.1657 3.9094 12.0075 3.9316 11.7741C3.95428 11.5407 3.9916 11.4127 4.11963 11.4429C4.24766 11.4731 4.54955 12.015 5.70938 12.2635C6.86921 12.512 7.99975 12.4747 7.99975 12.4747C7.99975 12.4747 9.13077 12.5125 10.2906 12.2635C11.4504 12.015 11.7518 11.4731 11.8799 11.4429C12.0079 11.4127 12.0452 11.5407 12.0679 11.7736C12.0906 12.0075 11.8345 12.1657 11.3224 12.392C10.8103 12.6178 11.0815 12.9944 11.0815 12.9944C11.0815 12.9944 11.27 13.4158 11.5563 13.6572C11.8421 13.8981 12.264 13.7248 12.8814 13.4838C13.4989 13.2429 14.0862 12.8427 14.7495 12.4596C15.4132 12.0764 15.4874 11.5704 15.5025 10.9227C15.5176 10.2755 15.4123 8.15284 14.9602 7.05207C14.5085 5.95129 14.2298 5.20295 13.883 4.5628C13.5372 3.92265 13.2315 3.53478 12.957 3.41006C12.6821 3.28628 11.149 2.66455 10.6407 2.66455C10.1323 2.66455 9.9821 3.01888 9.9821 3.01888L9.80493 3.41053C9.80493 3.41053 8.61439 3.18423 8.00779 3.18376C7.40118 3.18376 6.19505 3.41053 6.19505 3.41053L6.01788 3.01841C6.01788 3.01841 5.86765 2.66455 5.35884 2.66455ZM5.41411 7.36435H5.43301C6.17426 7.36435 6.77473 8.013 6.77473 8.81284C6.77473 9.61314 6.17426 10.2613 5.43301 10.2613C4.69175 10.2613 4.09129 9.61314 4.09129 8.81284C4.09082 8.02056 4.68042 7.37521 5.41411 7.36435ZM10.567 7.36435H10.5859C11.3196 7.37521 11.9087 8.02103 11.9087 8.81284C11.9087 9.61314 11.3082 10.2613 10.567 10.2613C9.82525 10.2613 9.22525 9.61314 9.22525 8.81284C9.22525 8.013 9.82525 7.36435 10.567 7.36435Z" fill="black"/>
</svg>
