<svg width="30" height="30" viewBox="0 0 30 30" fill="none" xmlns="http://www.w3.org/2000/svg">
<path d="M18.75 11.25V1.875H20.625V11.25H18.75ZM22.5 11.25V1.875H24.375V11.25H22.5ZM26.25 11.25V1.875H28.125V11.25H26.25ZM15 18.75C14.5044 18.7615 14.0116 18.6724 13.5514 18.4881C13.0912 18.3037 12.6732 18.0279 12.3226 17.6774C11.9721 17.3268 11.6963 16.9088 11.5119 16.4486C11.3276 15.9884 11.2385 15.4956 11.25 15C11.2385 14.5044 11.3276 14.0116 11.5119 13.5514C11.6963 13.0912 11.9721 12.6732 12.3226 12.3226C12.6732 11.9721 13.0912 11.6963 13.5514 11.5119C14.0116 11.3276 14.5044 11.2385 15 11.25V9.375C13.8875 9.375 12.7999 9.7049 11.8749 10.323C10.9499 10.9411 10.2289 11.8196 9.80318 12.8474C9.37744 13.8752 9.26604 15.0062 9.48309 16.0974C9.70013 17.1885 10.2359 18.1908 11.0225 18.9775C11.8092 19.7641 12.8115 20.2999 13.9026 20.5169C14.9938 20.734 16.1248 20.6226 17.1526 20.1968C18.1804 19.7711 19.0589 19.0501 19.677 18.1251C20.2951 17.2001 20.625 16.1125 20.625 15H18.75C18.7615 15.4956 18.6724 15.9884 18.4881 16.4486C18.3037 16.9088 18.0279 17.3268 17.6774 17.6774C17.3268 18.0279 16.9088 18.3037 16.4486 18.4881C15.9884 18.6724 15.4956 18.7615 15 18.75Z" fill="white"/>
<path d="M27.0872 17.3006L24.4669 15L23.2313 16.41L25.8488 18.7087L23.6363 22.5413L20.4235 21.4538C19.6676 22.0878 18.8065 22.5844 17.8791 22.9209L17.2125 26.25H12.7875L12.1219 22.9219C11.2012 22.5797 10.3464 22.0812 9.59534 21.4481L6.36378 22.5413L4.15128 18.7087L6.70597 16.4634C6.53068 15.494 6.52845 14.5012 6.69941 13.5309L4.15128 11.2903L6.36378 7.45875L9.57659 8.54625C10.3326 7.91177 11.1941 7.41486 12.1219 7.07812L12.7875 3.75H15V1.875H12.7875C12.3541 1.87505 11.934 2.02527 11.5988 2.30012C11.2637 2.57496 11.0341 2.95745 10.9491 3.3825L10.4766 5.74406C10.0461 5.9503 9.63038 6.18618 9.23253 6.45L6.96378 5.68219C6.55325 5.54356 6.10738 5.55139 5.70198 5.70436C5.29657 5.85732 4.95666 6.14598 4.74003 6.52125L2.52753 10.3537C2.31079 10.729 2.23074 11.1678 2.30099 11.5954C2.37123 12.0231 2.58744 12.4132 2.91284 12.6994L4.72316 14.2903C4.70722 14.5266 4.68753 14.7609 4.68753 15C4.68753 15.2419 4.69628 15.4813 4.71378 15.7181L2.91378 17.3006C2.58808 17.5866 2.37151 17.9766 2.30092 18.4042C2.23033 18.8319 2.31007 19.2708 2.52659 19.6462L4.73909 23.4788C4.95579 23.8544 5.29602 24.1434 5.70183 24.2964C6.10765 24.4493 6.55394 24.4569 6.96472 24.3178L9.24659 23.5453C9.63975 23.8105 10.0507 24.0483 10.4766 24.2569L10.9482 26.6175C11.0331 27.0427 11.2629 27.4253 11.5983 27.7002C11.9336 27.975 12.3539 28.1252 12.7875 28.125H17.2125C17.646 28.125 18.066 27.9747 18.4012 27.6999C18.7364 27.425 18.966 27.0426 19.051 26.6175L19.5235 24.2559C19.954 24.0497 20.3697 23.8138 20.7675 23.55L23.0353 24.3169C23.4459 24.4558 23.8919 24.4483 24.2975 24.2955C24.7031 24.1427 25.0432 23.8541 25.26 23.4788L27.4725 19.6462C27.6893 19.271 27.7693 18.8322 27.6991 18.4046C27.6288 17.9769 27.4126 17.5868 27.0872 17.3006Z" fill="white"/>
</svg>
