<svg width="37" height="37" viewBox="0 0 37 37" fill="none" xmlns="http://www.w3.org/2000/svg">
<path d="M28.712 19.6204C28.3975 18.8723 28.0402 18.0248 27.691 16.9784C26.7776 14.2392 29.696 11.2515 29.7237 11.2237L28.0888 9.58878C27.9269 9.75066 24.1309 13.6102 25.4965 17.7091C25.8734 18.8399 26.2503 19.7326 26.581 20.5188C27.3519 22.0437 27.7524 23.7288 27.75 25.4375C27.6145 26.8148 27.0857 28.1241 26.2267 29.2092C25.3677 30.2943 24.2148 31.1095 22.9053 31.5575C23.319 29.9361 23.3128 28.236 22.8874 26.6176C22.462 24.9993 21.6313 23.5159 20.4737 22.3075L19.2666 21.1004L18.5937 22.6694C16.4708 27.6228 13.9444 29.785 12.4586 30.6869C11.5462 30.1286 10.7796 29.3615 10.2217 28.4488C9.66388 27.5362 9.33083 26.5041 9.25 25.4375C9.32904 23.9819 9.69404 22.556 10.3242 21.2415C11.0716 19.6569 11.4927 17.9381 11.5625 16.1875V14.1317C12.5731 14.5479 13.875 15.6383 13.875 18.5V21.5109L15.8903 19.2735C19.4886 15.2798 18.7382 10.5242 17.2848 7.35491C18.3896 7.72317 19.3383 8.4525 19.9782 9.42547C20.6181 10.3984 20.912 11.5585 20.8125 12.7188H23.125C23.125 6.31659 17.8305 4.625 15.0312 4.625H12.7188L14.1062 6.47384C14.2647 6.68775 17.4154 11.0144 15.6707 15.3631C15.2828 14.27 14.5714 13.3209 13.631 12.642C12.6906 11.9631 11.5658 11.5866 10.4062 11.5625H9.25V16.1875C9.17096 17.6431 8.80596 19.069 8.17584 20.3835C7.42838 21.9681 7.00725 23.6869 6.9375 25.4375C6.9375 29.8867 11.3578 34.6875 18.5 34.6875C25.6422 34.6875 30.0625 29.8867 30.0625 25.4375C30.0633 23.4207 29.6013 21.4306 28.712 19.6204ZM14.8405 31.8269C16.9733 30.0613 18.6963 27.8527 19.8898 25.3542C20.5275 26.3829 20.8898 27.5582 20.9418 28.7673C20.9939 29.9765 20.7339 31.1786 20.187 32.2582C19.6279 32.3345 19.0643 32.3735 18.5 32.375C17.2591 32.3841 16.0243 32.1992 14.8405 31.8269Z" fill="white"/>
</svg>
